# xmcd
#
# Track frame offsets: 
#        150
#        18387
#        34030
#
# Disc length: 576 seconds
#
# Revision: 0
# Processed by: cddbd v1.5.2PL0 Copyright (c) Steve Scherf et al.
# Submitted via: ExactAudioCopy v0.99pb3
#
DISCID=19023e03
DTITLE=Union Kid - The Test
DYEAR=2000
DGENRE=1970
TTITLE0=The Test
TTITLE1=Track and Field
TTITLE2=Get This Message Back To Base
EXTD=
EXTT0=
EXTT1=
EXTT2=
PLAYORDER=
